<svg xmlns="http://www.w3.org/2000/svg" viewBox="0 0 512 512" width="512" height="512">
  <defs>
    <linearGradient id="g" x1="0" y1="0" x2="1" y2="1">
      <stop offset="0" stop-color="#3b82f6"/>
      <stop offset="1" stop-color="#a855f7"/>
    </linearGradient>
  </defs>
  <rect width="512" height="512" rx="112" fill="url(#g)"/>
  <g fill="#fff">
    <rect x="112" y="128" width="288" height="264" rx="28" fill="#ffffff" opacity="0.95"/>
    <rect x="112" y="128" width="288" height="64" rx="28" fill="#ffffff"/>
    <rect x="112" y="176" width="288" height="16" fill="#e2e8f0"/>
    <rect x="168" y="96" width="24" height="56" rx="12" fill="#1e293b"/>
    <rect x="320" y="96" width="24" height="56" rx="12" fill="#1e293b"/>
    <g fill="#3b82f6">
      <rect x="148" y="224" width="40" height="34" rx="8"/>
      <rect x="212" y="224" width="40" height="34" rx="8"/>
      <rect x="276" y="224" width="40" height="34" rx="8"/>
      <rect x="340" y="224" width="24" height="34" rx="8" opacity="0.6"/>
      <rect x="148" y="278" width="40" height="34" rx="8" opacity="0.6"/>
      <rect x="212" y="278" width="40" height="34" rx="8"/>
      <rect x="276" y="278" width="40" height="34" rx="8" opacity="0.6"/>
      <rect x="340" y="278" width="24" height="34" rx="8"/>
      <rect x="148" y="332" width="40" height="34" rx="8"/>
      <rect x="212" y="332" width="40" height="34" rx="8" opacity="0.6"/>
    </g>
  </g>
</svg>
